<?xml version="1.0" encoding="UTF-8" standalone="no"?><!-- Generator: Gravit.io --><svg xmlns="http://www.w3.org/2000/svg" xmlns:xlink="http://www.w3.org/1999/xlink" style="isolation:isolate" viewBox="0 0 12.75 20.7" width="12.75pt" height="20.7pt"><g><path d=" M 6.221 19.541 C 6.235 19.604 6.241 19.669 6.24 19.734 C 6.239 19.86 6.214 19.984 6.168 20.101 C 6.144 20.161 6.113 20.218 6.076 20.27 C 6.041 20.323 6 20.371 5.955 20.415 C 5.773 20.596 5.527 20.699 5.27 20.7 C 5.207 20.698 5.144 20.692 5.082 20.681 C 4.958 20.651 4.84 20.603 4.733 20.536 C 4.68 20.501 4.631 20.46 4.587 20.415 C 4.543 20.37 4.502 20.322 4.466 20.27 C 4.432 20.216 4.403 20.16 4.379 20.101 C 4.353 20.044 4.333 19.984 4.32 19.922 C 4.307 19.86 4.3 19.797 4.301 19.734 C 4.3 19.669 4.307 19.604 4.32 19.541 C 4.333 19.479 4.353 19.419 4.379 19.362 C 4.402 19.304 4.431 19.249 4.466 19.198 C 4.501 19.144 4.541 19.093 4.587 19.048 C 4.632 19.004 4.681 18.964 4.733 18.927 C 4.84 18.861 4.958 18.812 5.082 18.782 C 5.399 18.722 5.725 18.822 5.955 19.048 C 6.002 19.092 6.042 19.143 6.076 19.198 C 6.114 19.248 6.145 19.303 6.168 19.362 C 6.192 19.419 6.21 19.479 6.221 19.541 Z  M 11.312 2.408 C 9.651 0.355 6.904 -0.487 4.371 0.279 C 2.061 0.824 0.325 2.73 0.007 5.074 C -0.03 5.334 0.077 5.594 0.287 5.753 C 0.497 5.912 0.777 5.945 1.018 5.84 C 1.26 5.735 1.425 5.508 1.451 5.247 C 1.659 3.521 2.894 2.186 4.755 1.676 C 6.464 1.209 8.796 1.527 10.159 3.292 C 11.079 4.379 11.47 5.817 11.225 7.219 C 10.913 8.88 9.665 10.51 7.89 11.581 C 5.701 12.9 4.544 14.562 4.544 16.387 C 4.544 16.787 4.87 17.112 5.271 17.112 C 5.673 17.112 5.999 16.787 5.999 16.387 C 5.999 15.078 6.888 13.878 8.642 12.82 C 10.767 11.54 12.267 9.545 12.655 7.486 C 12.973 5.679 12.483 3.824 11.312 2.408 Z " fill="rgb(255,255,255)"/></g></svg>