<?xml version="1.0" encoding="UTF-8" standalone="no"?><!-- Generator: Gravit.io --><svg xmlns="http://www.w3.org/2000/svg" xmlns:xlink="http://www.w3.org/1999/xlink" style="isolation:isolate" viewBox="0 0 100 100" width="100pt" height="100pt"><defs><clipPath id="_clipPath_tvDU9qhiXTaOZiT5fegFJAwY0rXdiTTo"><rect width="100" height="100"/></clipPath></defs><g clip-path="url(#_clipPath_tvDU9qhiXTaOZiT5fegFJAwY0rXdiTTo)"><g><path d=" M 100 49.99 C 100 22.37 77.61 -0.03 50 -0.03 C 22.39 -0.03 0 22.37 0 49.99 C 0 77.611 22.39 100.011 50 100.011 C 77.61 100.011 100 77.611 100 49.99 Z " fill="rgb(10,126,201)"/><path d=" M 77.529 33.237 C 76.36 30.192 73.962 30.676 71.362 31.2 C 69.811 31.523 62.898 33.539 51.995 45.071 C 47.461 49.849 44.478 53.66 42.503 56.563 C 41.294 55.091 39.923 53.499 38.472 52.067 C 34.019 47.611 29.041 44.547 28.839 44.426 C 26.763 43.156 24.043 43.801 22.753 45.898 C 21.483 47.974 22.128 50.696 24.204 51.986 C 24.244 52.007 28.517 54.648 32.185 58.337 C 35.933 62.087 39.339 67.168 39.379 67.228 C 40.206 68.478 41.596 69.204 43.067 69.204 C 43.309 69.204 43.571 69.184 43.833 69.144 C 45.566 68.841 46.937 67.551 47.36 65.857 C 47.38 65.817 49.133 60.958 58.384 51.2 C 65.84 43.317 70.818 40.817 72.551 40.132 C 72.572 40.132 72.572 40.132 72.612 40.132 C 72.612 40.132 72.672 40.111 72.773 40.051 C 73.075 39.93 73.237 39.89 73.237 39.89 C 73.156 39.91 73.116 39.91 73.116 39.91 L 73.116 39.89 C 73.922 39.547 75.413 38.902 75.433 38.882 C 77.67 37.914 78.416 35.495 77.529 33.237 Z " fill="rgb(255,255,255)"/></g></g></svg>