<?xml version="1.0" encoding="UTF-8" standalone="no"?><!-- Generator: Gravit.io --><svg xmlns="http://www.w3.org/2000/svg" xmlns:xlink="http://www.w3.org/1999/xlink" style="isolation:isolate" viewBox="0 0 64 64" width="64pt" height="64pt"><defs><clipPath id="_clipPath_uqXGn6vpz9K8tbDNqpO565Hh1f759ZkD"><rect width="64" height="64"/></clipPath></defs><g clip-path="url(#_clipPath_uqXGn6vpz9K8tbDNqpO565Hh1f759ZkD)"><g><path d=" M 64 32 C 64 14.33 49.67 0 32 0 C 14.33 0 0 14.33 0 32 C 0 49.67 14.33 64 32 64 C 49.67 64 64 49.67 64 32 Z " fill="rgb(10,126,201)"/><path d=" M 40.667 46.381 C 40.487 46.123 40.152 46.02 39.855 46.162 C 36.682 47.658 33.083 49.245 32.374 49.387 C 32.361 49.374 32.322 49.348 32.297 49.296 C 32.206 49.167 32.155 49 32.155 48.78 C 32.155 46.988 33.509 41.532 36.179 32.568 C 38.436 25.035 38.694 23.474 38.694 22.958 C 38.694 22.159 38.385 21.488 37.804 21.011 C 37.249 20.559 36.489 20.327 35.521 20.327 C 33.909 20.327 32.052 20.933 29.833 22.198 C 27.679 23.41 25.267 25.474 22.688 28.324 C 22.481 28.543 22.468 28.879 22.636 29.124 C 22.804 29.369 23.126 29.459 23.41 29.356 C 24.313 28.982 28.879 27.112 29.549 26.699 C 30.091 26.364 30.568 26.183 30.955 26.183 C 30.968 26.183 30.981 26.183 30.994 26.183 C 30.994 26.209 31.007 26.247 31.007 26.299 C 31.007 26.686 30.929 27.163 30.762 27.679 C 26.879 40.268 24.983 47.994 24.983 51.283 C 24.983 52.443 25.306 53.372 25.938 54.056 C 26.583 54.752 27.46 55.1 28.53 55.1 C 29.678 55.1 31.071 54.623 32.8 53.63 C 34.464 52.676 37.017 50.573 40.59 47.22 C 40.809 46.988 40.848 46.639 40.667 46.381 Z  M 40.538 9.893 C 39.906 9.248 39.094 8.913 38.127 8.913 C 36.927 8.913 35.869 9.39 35.005 10.331 C 34.154 11.26 33.728 12.382 33.728 13.698 C 33.728 14.73 34.051 15.594 34.67 16.252 C 35.302 16.922 36.102 17.258 37.056 17.258 C 38.217 17.258 39.249 16.755 40.152 15.761 C 41.042 14.781 41.493 13.646 41.493 12.356 C 41.493 11.363 41.17 10.538 40.538 9.893 Z " fill="rgb(255,255,255)"/></g></g></svg>